<svg xmlns="http://www.w3.org/2000/svg" version="1.0" width="150.000000pt" height="150.000000pt" viewBox="0 0 150.000000 150.000000" preserveAspectRatio="xMidYMid meet">
<metadata>
Created by potrace 1.16, written by Peter Selinger 2001-2019
</metadata>
<g transform="translate(0.000000,150.000000) scale(0.100000,-0.100000)" fill="#FFF" stroke="none">
<path d="M0 750 l0 -750 245 0 c135 0 245 1 245 3 0 1 -7 24 -15 51 -21 70 -20 86 9 86 14 0 44 -18 74 -45 68 -61 123 -85 198 -85 72 0 147 33 194 86 17 19 34 32 39 29 5 -3 12 -1 16 5 3 5 15 10 26 10 23 0 25 -36 4 -95 -8 -22 -15 -41 -15 -42 0 -2 108 -3 240 -3 l240 0 0 750 0 750 -362 -1 c-307 0 -356 -2 -317 -13 98 -26 175 -90 222 -186 31 -64 31 -195 0 -262 -30 -66 -96 -133 -162 -165 -48 -24 -68 -28 -141 -28 -73 0 -93 4 -141 28 -66 32 -132 99 -162 165 -30 67 -30 199 1 262 47 96 122 160 221 186 39 11 -8 13 -306 13 l-353 1 0 -750z m570 60 c128 -78 232 -77 362 1 63 39 73 41 119 36 161 -19 259 -186 259 -439 0 -110 -18 -159 -74 -205 -46 -37 -96 -53 -171 -53 l-57 0 7 37 c9 52 11 53 58 53 97 0 147 58 147 170 -1 138 -51 283 -112 320 -57 35 -79 34 -144 -5 -147 -88 -288 -88 -436 3 -56 33 -58 34 -100 21 -52 -17 -100 -76 -124 -152 -21 -71 -29 -254 -12 -286 23 -42 63 -64 127 -69 58 -4 59 -5 70 -42 6 -20 11 -40 11 -44 0 -10 -122 -7 -163 5 -48 13 -102 60 -130 113 -17 34 -21 57 -20 136 2 214 69 361 188 416 74 35 116 31 195 -16z m296 -301 c24 -11 44 -24 44 -27 0 -4 -12 -15 -25 -25 -23 -17 -27 -17 -56 -1 -23 11 -49 15 -90 12 -71 -5 -122 -40 -157 -109 -44 -83 -11 -197 71 -248 116 -72 267 1 292 141 4 22 2 44 -4 55 -10 15 -11 13 -6 -14 4 -18 2 -34 -4 -38 -6 -3 -11 0 -11 8 0 8 -7 20 -15 27 -14 12 -13 16 11 42 31 31 50 37 40 11 -6 -15 -4 -15 14 2 26 24 32 16 38 -49 12 -150 -103 -276 -252 -276 -150 1 -256 109 -256 260 0 79 22 130 78 184 78 75 191 93 288 45z m142 -21 c12 -16 27 -66 16 -55 -4 4 -72 -56 -151 -135 l-143 -143 -60 60 c-62 61 -69 79 -38 99 14 9 25 3 59 -29 l41 -40 122 128 c67 70 127 127 133 127 6 0 15 -6 21 -12z m-163 -68 l27 -10 -67 -73 c-37 -39 -71 -72 -75 -72 -5 0 -28 19 -52 41 -24 23 -54 44 -66 48 -31 10 -17 35 32 57 46 21 157 26 201 9z"/>
<path d="M629 1377 c-138 -73 -166 -273 -52 -378 49 -47 93 -63 163 -63 202 0 310 229 180 386 -65 79 -198 104 -291 55z"/>
</g>
</svg>
